<?xml version="1.0" encoding="utf-8"?>
<!-- Generator: Adobe Illustrator 19.1.0, SVG Export Plug-In . SVG Version: 6.00 Build 0)  -->
<svg version="1.1" id="Layer_1" xmlns="http://www.w3.org/2000/svg" xmlns:xlink="http://www.w3.org/1999/xlink" x="0px" y="0px"
	 viewBox="0 0 257 40" style="enable-background:new 0 0 257 40;" xml:space="preserve">
<style type="text/css">
	.st0{fill:#FFFFFF;}
</style>
<g>
	<path class="st0" d="M0.4,34.4V5.1h5.9v11.6H18V5.1h5.9v29.3H18V22H6.3v12.4H0.4z"/>
	<path class="st0" d="M34.6,25.2c0.1,1.8,0.7,3.1,1.6,3.9c1,0.8,2,1.2,3.2,1.2c1,0,2-0.2,2.8-0.6c0.8-0.4,1.7-1.2,2.6-2.4l4.3,2.6
		c-1.2,1.8-2.6,3.1-4.2,3.9s-3.4,1.1-5.6,1.1c-1.4,0-2.7-0.2-4-0.7c-1.3-0.4-2.4-1.1-3.3-2c-1-0.9-1.7-2.1-2.3-3.5
		c-0.6-1.4-0.8-3-0.8-4.9c0-1.8,0.3-3.4,0.8-4.8c0.5-1.4,1.3-2.5,2.2-3.5c0.9-0.9,2-1.7,3.3-2.2c1.2-0.5,2.6-0.7,4-0.7
		c3,0,5.3,1,7.1,3.1c1.8,2.1,2.7,5.2,2.8,9.4H34.6z M43.2,21.3c-0.1-1.4-0.6-2.5-1.4-3.2c-0.8-0.7-1.7-1.1-2.7-1.1
		c-0.5,0-1,0.1-1.5,0.3c-0.5,0.2-0.9,0.5-1.3,0.8c-0.4,0.4-0.8,0.8-1,1.3s-0.5,1.1-0.5,1.8H43.2z"/>
	<path class="st0" d="M65,34.4l-0.3-1.6c-0.6,0.6-1.4,1.2-2.4,1.5c-1,0.4-2,0.6-3.1,0.6c-0.9,0-1.9-0.2-2.8-0.5
		c-0.9-0.3-1.7-0.7-2.4-1.3c-0.7-0.6-1.2-1.3-1.6-2.1c-0.4-0.8-0.6-1.8-0.6-2.8s0.2-2,0.7-2.8c0.4-0.8,1-1.5,1.8-2
		c0.7-0.6,1.6-1,2.5-1.4s2-0.6,3-0.8c0.7-0.1,1.5-0.3,2.4-0.3c0.9-0.1,1.6-0.1,2.2-0.2V20c0-0.9-0.3-1.5-0.9-2.1
		c-0.6-0.5-1.3-0.8-2.1-0.8c-0.5,0-1.1,0.1-1.9,0.4c-0.8,0.3-1.5,0.8-2.2,1.5l-3.9-2.7c0.6-0.7,1.2-1.3,1.9-1.8
		c0.7-0.5,1.5-0.8,2.2-1.1c0.7-0.3,1.5-0.4,2.2-0.5c0.7-0.1,1.4-0.2,2-0.2c1.2,0,2.4,0.2,3.4,0.5c1,0.3,1.9,0.8,2.7,1.5
		c0.7,0.7,1.3,1.5,1.7,2.5c0.4,1,0.6,2.2,0.6,3.7v13.6H65z M64.5,24.5c-0.6,0-1.2,0.1-1.9,0.2c-0.7,0.1-1.3,0.2-1.9,0.3
		c-1.2,0.2-2.1,0.6-2.6,1.2s-0.7,1.2-0.7,1.9c0,0.7,0.3,1.3,0.8,1.7s1.3,0.6,2.3,0.6c0.7,0,1.4-0.1,2.1-0.4c0.7-0.3,1.3-0.7,1.8-1.1
		V24.5z"/>
	<path class="st0" d="M75.9,34.4V13.2h5.2l0.3,1.8c0.8-0.9,1.6-1.4,2.4-1.8c0.8-0.3,1.7-0.5,2.5-0.5c0.5,0,1,0.1,1.6,0.2
		c0.6,0.1,1.1,0.3,1.7,0.5l-1,5C88,18.2,87.5,18,87,17.9c-0.5-0.1-1-0.2-1.5-0.2c-0.8,0-1.6,0.2-2.2,0.6c-0.7,0.4-1.2,0.8-1.6,1.3
		v14.9H75.9z"/>
	<path class="st0" d="M100.2,28.4c0,0.7,0.2,1.1,0.5,1.4c0.3,0.2,0.6,0.4,0.9,0.4c0.6,0,1.2-0.1,1.7-0.4c0.6-0.3,1-0.6,1.5-0.9
		l2.1,3.9c-1,0.6-2,1.2-3.1,1.6c-1.1,0.4-2.2,0.6-3.4,0.6c-0.7,0-1.5-0.1-2.2-0.3s-1.3-0.5-1.9-1c-0.5-0.4-1-1-1.3-1.7
		c-0.3-0.7-0.5-1.6-0.5-2.6V17.6h-3.1v-4.4h3.1V7.7h5.7v5.5h5.1v4.4h-5.1V28.4z"/>
</g>
</svg>
